<svg width="55" height="49" viewBox="0 0 55 49" fill="none" xmlns="http://www.w3.org/2000/svg">
<g clip-path="url(#clip0_73_82)">
<path d="M27.5001 5L49 46H6L27.5001 5Z" stroke="black" stroke-width="3"/>
<path d="M27.5001 0L55 49H0L27.5001 0Z" stroke="black"/>
<path d="M27.6667 25.0051C31.5009 25.0858 34.9102 26.1193 37.321 27.6785C39.746 29.2468 41.0414 31.2536 40.999 33.2843C40.9567 35.3151 39.5788 37.2656 37.0905 38.7305C34.6168 40.1866 31.1675 41.0758 27.3333 40.9949C23.4991 40.9141 20.0898 39.8809 17.679 38.3216C15.254 36.753 13.9586 34.7464 14.001 32.7157C14.0433 30.6849 15.4212 28.7346 17.9095 27.2696C20.3832 25.8133 23.8325 24.9243 27.6667 25.0051Z" stroke="black" stroke-width="3"/>
</g>
<defs>
<clipPath id="clip0_73_82">
<rect width="55" height="49" fill="white"/>
</clipPath>
</defs>
</svg>
