<svg width="30" height="28" viewBox="0 0 30 28" fill="none" xmlns="http://www.w3.org/2000/svg">
<path d="M28.5 24.4999H15.2143C14.3863 24.4999 13.7143 25.172 13.7143 25.9999C13.7143 26.828 14.3863 27.5 15.2143 27.5H28.5C29.328 27.5 30 26.828 30 25.9999C30 25.172 29.328 24.4999 28.5 24.4999ZM1.5 3.49994H28.5C29.328 3.49994 30 2.82798 30 1.99994C30 1.1719 29.328 0.499939 28.5 0.499939H1.5C0.67201 0.499988 0 1.17195 0 1.99999C0 2.82798 0.67201 3.49994 1.5 3.49994ZM28.5 12.4999H8.14286C7.31487 12.4999 6.64286 13.172 6.64286 14C6.64286 14.828 7.31487 15.5 8.14286 15.5H28.5C29.328 15.5 30 14.828 30 14C30 13.172 29.328 12.4999 28.5 12.4999Z" fill="#212733"/>
</svg>
