<svg width="30" height="30" viewBox="0 0 30 30" fill="none" xmlns="http://www.w3.org/2000/svg">
<rect width="30" height="30" rx="5" fill="white"/>
<g clip-path="url(#clip0_16_177)">
<path d="M17.5418 9.16683C18.3557 9.32563 19.1038 9.72371 19.6902 10.3101C20.2766 10.8965 20.6746 11.6446 20.8334 12.4585M17.5418 5.8335C19.2328 6.02136 20.8098 6.77864 22.0136 7.981C23.2175 9.18336 23.9768 10.7593 24.1668 12.4502M23.3334 19.1002V21.6002C23.3344 21.8322 23.2868 22.062 23.1939 22.2746C23.1009 22.4873 22.9645 22.6782 22.7935 22.835C22.6225 22.9919 22.4206 23.1114 22.2007 23.1858C21.9809 23.2601 21.7479 23.2877 21.5168 23.2668C18.9525 22.9882 16.4893 22.1119 14.3251 20.7085C12.3116 19.429 10.6046 17.722 9.32511 15.7085C7.91676 13.5345 7.04031 11.0593 6.76677 8.4835C6.74595 8.25305 6.77334 8.0208 6.84719 7.80152C6.92105 7.58224 7.03975 7.38074 7.19575 7.20985C7.35174 7.03896 7.54161 6.90242 7.75327 6.80893C7.96492 6.71544 8.19372 6.66705 8.42511 6.66683H10.9251C11.3295 6.66285 11.7216 6.80606 12.0282 7.06977C12.3349 7.33349 12.5352 7.6997 12.5918 8.10016C12.6973 8.90022 12.893 9.68577 13.1751 10.4418C13.2872 10.7401 13.3115 11.0643 13.245 11.3759C13.1786 11.6875 13.0242 11.9736 12.8001 12.2002L11.7418 13.2585C12.9281 15.3448 14.6555 17.0722 16.7418 18.2585L17.8001 17.2002C18.0267 16.9761 18.3127 16.8217 18.6244 16.7552C18.936 16.6888 19.2602 16.713 19.5584 16.8252C20.3145 17.1073 21.1001 17.303 21.9001 17.4085C22.3049 17.4656 22.6746 17.6695 22.9389 17.9814C23.2032 18.2933 23.3436 18.6915 23.3334 19.1002Z" stroke="#17181C" stroke-width="2" stroke-linecap="round" stroke-linejoin="round"/>
</g>
<defs>
<clipPath id="clip0_16_177">
<rect width="20" height="20" fill="white" transform="translate(5 5)"/>
</clipPath>
</defs>
</svg>
